# xmcd
#
# Track frame offsets: 
#        150
#        12007
#        42784
#        62853
#        69791
#        73527
#        84067
#        98278
#        107911
#        121936
#        143114
#        164905
#        177891
#        201754
#        211300
#        227418
#        233824
#        285678
#        303645
#
# Disc length: 4450 seconds
#
# Revision: 1
# Processed by: cddbd v1.5.2PL0 Copyright (c) Steve Scherf et al.
# Submitted via: ExactAudioCopy v1.1
#
DISCID=fa116013
DTITLE=野中幸人 - 「高機動幻想ガンパレード・マーチ」キャラクタードラマ みんなのがんぱれーど・まーち② 原の整備班長日誌
DYEAR=2002
DGENRE=Drama
TTITLE0=さただにひろし - 突撃軍歌 OP Theme[突撃軍歌ガンパレード・マーチ]
TTITLE1=石田彰・岡村明美・山口勝平・佐久間純子・梅津秀行・樫井笙人・結城比呂・森川智之・こおろぎさとみ・橘・矢尾一樹・保志総一朗・矢
TTITLE1=島晶子・他 - 整備内乱・勃発
TTITLE2=石田彰・岡村明美・山口勝平・佐久間純子・梅津秀行・樫井笙人・結城比呂・森川智之・こおろぎさとみ・橘・矢尾一樹・保志総一朗・矢
TTITLE2=島晶子・他 - 整備内乱・再開
TTITLE3=石田彰・岡村明美・山口勝平・佐久間純子・梅津秀行・樫井笙人・結城比呂・森川智之・こおろぎさとみ・橘・矢尾一樹・保志総一朗・矢
TTITLE3=島晶子・他 - 田代秘密
TTITLE4=石田彰・岡村明美・山口勝平・佐久間純子・梅津秀行・樫井笙人・結城比呂・森川智之・こおろぎさとみ・橘・矢尾一樹・保志総一朗・矢
TTITLE4=島晶子・他 - 原の怒り
TTITLE5=石田彰・岡村明美・山口勝平・佐久間純子・梅津秀行・樫井笙人・結城比呂・森川智之・こおろぎさとみ・橘・矢尾一樹・保志総一朗・矢
TTITLE5=島晶子・他 - 勇美炸裂
TTITLE6=石田彰・岡村明美・山口勝平・佐久間純子・梅津秀行・樫井笙人・結城比呂・森川智之・こおろぎさとみ・橘・矢尾一樹・保志総一朗・矢
TTITLE6=島晶子・他 - 森の悩み
TTITLE7=石田彰・岡村明美・山口勝平・佐久間純子・梅津秀行・樫井笙人・結城比呂・森川智之・こおろぎさとみ・橘・矢尾一樹・保志総一朗・矢
TTITLE7=島晶子・他 - 原VS善行
TTITLE8=石田彰・岡村明美・山口勝平・佐久間純子・梅津秀行・樫井笙人・結城比呂・森川智之・こおろぎさとみ・橘・矢尾一樹・保志総一朗・矢
TTITLE8=島晶子・他 - 原の想い
TTITLE9=石田彰・岡村明美・山口勝平・佐久間純子・梅津秀行・樫井笙人・結城比呂・森川智之・こおろぎさとみ・橘・矢尾一樹・保志総一朗・矢
TTITLE9=島晶子・他 - 狩谷奔走
TTITLE10=石田彰・岡村明美・山口勝平・佐久間純子・梅津秀行・樫井笙人・結城比呂・森川智之・こおろぎさとみ・橘・矢尾一樹・保志総一朗・
TTITLE10=矢島晶子・他 - 茜の想い
TTITLE11=石田彰・岡村明美・山口勝平・佐久間純子・梅津秀行・樫井笙人・結城比呂・森川智之・こおろぎさとみ・橘・矢尾一樹・保志総一朗・
TTITLE11=矢島晶子・他 - 芳野提案
TTITLE12=石田彰・岡村明美・山口勝平・佐久間純子・梅津秀行・樫井笙人・結城比呂・森川智之・こおろぎさとみ・橘・矢尾一樹・保志総一朗・
TTITLE12=矢島晶子・他 - 森の失敗
TTITLE13=石田彰・岡村明美・山口勝平・佐久間純子・梅津秀行・樫井笙人・結城比呂・森川智之・こおろぎさとみ・橘・矢尾一樹・保志総一朗・
TTITLE13=矢島晶子・他 - 仲良く？
TTITLE14=石田彰・岡村明美・山口勝平・佐久間純子・梅津秀行・樫井笙人・結城比呂・森川智之・こおろぎさとみ・橘・矢尾一樹・保志総一朗・
TTITLE14=矢島晶子・他 - ハンター
TTITLE15=石田彰・岡村明美・山口勝平・佐久間純子・梅津秀行・樫井笙人・結城比呂・森川智之・こおろぎさとみ・橘・矢尾一樹・保志総一朗・
TTITLE15=矢島晶子・他 - 戦闘開始
TTITLE16=石田彰・岡村明美・山口勝平・佐久間純子・梅津秀行・樫井笙人・結城比呂・森川智之・こおろぎさとみ・橘・矢尾一樹・保志総一朗・
TTITLE16=矢島晶子・他 - みんなのガンパレード
TTITLE17=石田彰・岡村明美・山口勝平・佐久間純子・梅津秀行・樫井笙人・結城比呂・森川智之・こおろぎさとみ・橘・矢尾一樹・保志総一朗・
TTITLE17=矢島晶子・他 - 大団円！
TTITLE18=松村順二 - 応援賛歌 ED Theme[We can get to Dream]
EXTD=YEAR: 2002
EXTT0=
EXTT1=
EXTT2=
EXTT3=
EXTT4=
EXTT5=
EXTT6=
EXTT7=
EXTT8=
EXTT9=
EXTT10=
EXTT11=
EXTT12=
EXTT13=
EXTT14=
EXTT15=
EXTT16=
EXTT17=
EXTT18=
PLAYORDER=
